<svg xmlns="http://www.w3.org/2000/svg">
    <symbol id="arrow-left" viewBox="0 0 36 36">
        <g>
            <path fill-rule="evenodd" clip-rule="evenodd" d="M26 17H13.8L19.4 11.4L18 10L10 18L18 26L19.4 24.6L13.8 19H26V17Z" fill="white"/>
        </g>
    </symbol>
    <symbol id="check" viewBox="0 0 20 20">
        <g>
            <path d="M10 0C4.48578 0 0 4.48578 0 10C0 15.5142 4.48578 20 10 20C15.5142 20 20 15.5142 20 10C20 4.48578 15.5142 0 10 0Z" fill="#2196F3"/>
            <path d="M15.0684 7.88086L9.65164 13.2974C9.48914 13.4599 9.27582 13.5417 9.0625 13.5417C8.84918 13.5417 8.63586 13.4599 8.47336 13.2974L5.76508 10.5891C5.43915 10.2634 5.43915 9.73663 5.76508 9.41086C6.09085 9.08493 6.61743 9.08493 6.94336 9.41086L9.0625 11.53L13.8901 6.70258C14.2159 6.37665 14.7424 6.37665 15.0684 6.70258C15.3941 7.02835 15.3941 7.55493 15.0684 7.88086Z" fill="#FAFAFA"/>
        </g>
    </symbol>
    <symbol id="dot" viewBox="0 0 7 7">
        <g>
            <circle cx="3.5" cy="3.5" r="3.5" fill="#10B56B"/>
        </g>
    </symbol>
    <symbol id="height" viewBox="0 0 18 18">
        <g>
            <path d="M16.9784 4.34141L16.9784 4.34143C17.0562 4.41926 17.1 4.5248 17.1 4.63491C17.1 4.74497 17.0562 4.85056 16.9784 4.92837L4.92837 16.9784C4.84733 17.0595 4.74098 17.1 4.63491 17.1C4.52887 17.1 4.42248 17.0595 4.34145 16.9784L1.02157 13.6586L1.09212 13.588L1.02157 13.6586C0.943764 13.5807 0.9 13.4752 0.9 13.3651C0.9 13.255 0.943771 13.1495 1.0215 13.0717L1.02154 13.0716L2.08769 12.0055L2.11695 11.9763L2.11698 11.9762L2.14624 11.947L8.68976 5.40345L8.76047 5.47416L8.68976 5.40344L8.68976 5.40344L8.68977 5.40344L8.68977 5.40344L8.68977 5.40343L8.68977 5.40343L8.68978 5.40343L8.68978 5.40342L8.68978 5.40342L8.68979 5.40342L8.68979 5.40342L8.68979 5.40341L8.68979 5.40341L8.6898 5.40341L8.6898 5.40341L8.6898 5.4034L8.6898 5.4034L8.68981 5.4034L8.68981 5.40339L8.68981 5.40339L8.68982 5.40339L8.68982 5.40339L8.68982 5.40338L8.76053 5.47409L8.68982 5.40338L8.68983 5.40338L8.68983 5.40338L8.68983 5.40337L8.68983 5.40337L8.68984 5.40337L8.68984 5.40336L8.68984 5.40336L8.68985 5.40336L8.68985 5.40336L8.68985 5.40335L8.68985 5.40335L8.68986 5.40335L8.68986 5.40335L8.68986 5.40334L8.68986 5.40334L8.68987 5.40334L8.68987 5.40333L8.68987 5.40333L8.68988 5.40333L8.68988 5.40333L8.68988 5.40332L8.68988 5.40332L10.8799 3.2133L16.9784 4.34141ZM16.9784 4.34141L13.6586 1.02157L13.6585 1.02153M16.9784 4.34141L13.6585 1.02153M13.6585 1.02153C13.5807 0.94378 13.4752 0.9 13.3651 0.9C13.255 0.9 13.1495 0.943777 13.0717 1.02155L13.0716 1.02157M13.6585 1.02153L13.0716 1.02157M13.0716 1.02157L10.91 3.18322L13.0716 1.02157ZM10.8807 3.21251L10.8808 3.21244L10.8807 3.21251ZM10.8807 3.21251L10.8799 3.21327L10.8807 3.21251ZM12.8567 2.41041L13.7926 3.34651C13.7926 3.34651 13.7926 3.34651 13.7926 3.34652C13.9546 3.5086 13.9546 3.77138 13.7926 3.93346C13.7116 4.01446 13.6051 4.05503 13.4991 4.05503C13.3931 4.05503 13.2867 4.0145 13.2056 3.93346L12.2695 2.99736L11.7609 3.50594L12.2419 3.98698L12.1712 4.05769L12.2419 3.98699C12.404 4.14909 12.404 4.41187 12.2419 4.57396C12.1609 4.655 12.0545 4.69553 11.9485 4.69553C11.8424 4.69553 11.736 4.655 11.655 4.57396L11.174 4.09292L10.6654 4.60147L11.6015 5.5376C11.7636 5.69969 11.7636 5.96247 11.6015 6.12455L11.6015 6.12457C11.5205 6.20554 11.4142 6.24612 11.3081 6.24612C11.202 6.24612 11.0956 6.20559 11.0146 6.12455L11.0853 6.05384L11.0146 6.12455L10.0785 5.18845L9.57009 5.69689L10.0511 6.17807C10.0511 6.17808 10.0511 6.17808 10.0511 6.17808C10.2132 6.34017 10.2132 6.60294 10.0511 6.76502C9.97009 6.84602 9.86367 6.88659 9.75762 6.88659C9.65159 6.88659 9.5452 6.84606 9.46416 6.76502L8.98297 6.28383L8.47458 6.79222L9.41068 7.72832L9.41069 7.72833C9.57275 7.89043 9.57277 8.1532 9.4107 8.31529L12.8567 2.41041ZM12.8567 2.41041L13.3651 1.90202L16.098 4.63491L4.63491 16.098L1.90202 13.3651L2.41041 12.8567L2.8916 13.3379C2.97264 13.4189 3.07903 13.4595 3.18506 13.4595C3.29113 13.4595 3.39749 13.4189 3.47852 13.3379C3.64061 13.1758 3.6406 12.913 3.47853 12.7509L3.47853 12.7509L2.99736 12.2697L3.50594 11.7611L4.44188 12.6971C4.52292 12.7781 4.62931 12.8187 4.73534 12.8187C4.84144 12.8187 4.94778 12.7781 5.02879 12.6971L5.0288 12.6971C5.19089 12.535 5.19089 12.2722 5.0288 12.1101L4.09286 11.1742L4.60141 10.6656L5.0826 11.1468C5.16364 11.2279 5.27003 11.2684 5.37606 11.2684C5.4821 11.2684 5.58849 11.2279 5.66952 11.1468C5.83161 10.9847 5.8316 10.722 5.66953 10.5599L5.66952 10.5599L5.18833 10.0787L5.69675 9.57023L6.63282 10.5063L6.70353 10.4356L6.63282 10.5063C6.71386 10.5874 6.82025 10.6279 6.92628 10.6279C7.03236 10.6279 7.13875 10.5873 7.21974 10.5063C7.38183 10.3443 7.38183 10.0815 7.21974 9.91938L6.28364 8.98328L6.79211 8.47481L7.27329 8.9558C7.27329 8.95581 7.2733 8.95581 7.2733 8.95582C7.35433 9.03683 7.46072 9.07731 7.56669 9.07731C7.67279 9.07731 7.77919 9.03674 7.8602 8.95569C8.02224 8.79357 8.02219 8.53079 7.86008 8.36872L7.86007 8.36871L7.379 7.88786L7.88766 7.3792L8.82376 8.3153C8.90479 8.39634 9.01118 8.43687 9.11722 8.43687C9.22323 8.43687 9.32966 8.39636 9.41068 8.3153L12.8567 2.41041Z" fill="white" stroke="white" stroke-width="0.2"/>
            <path d="M5.84347 12.9473L5.84349 12.9473C6.00562 12.7853 6.26833 12.7853 6.43044 12.9473L6.43046 12.9474C6.59253 13.1095 6.59254 13.3722 6.43042 13.5343L6.43041 13.5343M5.84347 12.9473L6.35971 13.4636L6.43041 13.5343M5.84347 12.9473L4.20841 14.5824C4.04632 14.7445 4.04633 15.0073 4.2084 15.1694L4.20841 15.1694C4.28944 15.2504 4.39583 15.291 4.50187 15.291C4.60792 15.291 4.71431 15.2504 4.79533 15.1694L5.84347 12.9473ZM6.43041 13.5343L4.79535 15.1694L6.43041 13.5343Z" fill="white" stroke="white"  stroke-width="0.2"/>
            <path d="M7.30431 11.5667C7.17457 11.5667 7.07053 11.6182 7.00031 11.7C6.93189 11.7796 6.90005 11.8825 6.9 11.9816C6.89995 12.0808 6.93167 12.1837 7.0001 12.2634C7.07034 12.3452 7.17445 12.3967 7.30431 12.3967C7.43406 12.3967 7.53809 12.3452 7.60831 12.2634C7.67673 12.1837 7.70856 12.0809 7.70861 11.9817C7.70866 11.8826 7.67694 11.7797 7.60851 11.7C7.53827 11.6182 7.43417 11.5667 7.30431 11.5667Z" fill="white" stroke="white" stroke-width="0.2"/>
        </g>
    </symbol>
    <symbol id="weight" viewBox="0 0 16 16">
        <g>
            <path d="M13.5 0H2.5C1.11997 0.00165625 0.00165625 1.11997 0 2.5V13.5C0.00165625 14.88 1.11997 15.9983 2.5 16H13.5C14.88 15.9983 15.9983 14.88 16 13.5V2.5C15.9983 1.11997 14.88 0.00165625 13.5 0ZM15 13.5C15 14.3284 14.3284 15 13.5 15H8.5V12H7.5V15H2.5C1.67156 15 1 14.3284 1 13.5V2.5C1 1.67156 1.67156 1 2.5 1H13.5C14.3284 1 15 1.67156 15 2.5V13.5Z" fill="#848484"/>
            <path d="M8.00025 2.99991H8.06025L8.07125 1.99991H8.00025C7.66444 1.99954 7.32906 2.0236 6.99675 2.07191L7.14125 3.06141C7.42575 3.02035 7.71281 2.99982 8.00025 2.99991Z" fill="#848484"/>
            <path d="M6.25016 3.26738L5.94466 2.31738C5.60016 2.4277 5.26563 2.56704 4.94466 2.73388L5.40566 3.62138C5.67675 3.47995 5.95925 3.36154 6.25016 3.26738Z" fill="#848484"/>
            <path d="M9.14222 2.09341L8.97722 3.07991C10.0857 3.25985 11.1093 3.78473 11.9022 4.57991L10.6912 6.99991H8.93422L10.4162 4.77741L9.58422 4.22241L7.73272 6.99991H5.30922L4.10022 4.57841C4.26678 4.40901 4.44541 4.25195 4.63472 4.10841L4.02722 3.31241C3.68209 3.56804 3.37062 3.86623 3.10022 4.19991L2.91472 4.44991L4.69122 7.99991H11.3092L13.0867 4.44191L12.8957 4.19191C11.9369 3.06473 10.6047 2.31991 9.14222 2.09341Z" fill="#848484"/>
        </g>
    </symbol>
    <symbol id="bodytype" viewBox="0 0 16 18">
        <g>
            <path d="M3.21452 8.54511L3.21452 8.5451C3.16056 8.30554 3.30819 8.06591 3.54597 8.0108M3.21452 8.54511L13.1093 8.05951C12.8989 8.01058 12.6893 8.14421 12.6412 8.35758L12.5925 8.34658L12.5925 8.34659L11.2563 14.2733C11.2422 14.336 11.2416 14.4009 11.2545 14.4638L11.3035 14.4537L11.2545 14.4638L11.6036 16.1575L5.06292 16.1576L5.41204 14.4638L5.36307 14.4537L5.41204 14.4638C5.42499 14.4009 5.42441 14.336 5.41028 14.2733L4.07411 8.34658C4.02005 8.10678 3.78418 7.95558 3.54597 8.0108M3.21452 8.54511L4.52924 14.3768L4.16219 16.1576H2.5417L1.8367 6.76057C1.77112 5.88692 2.36174 5.10542 3.20921 4.94156L5.23388 4.55045L5.23389 4.55045C6.13758 4.37577 6.79265 3.57235 6.79265 2.64082V2.64081L6.79245 1.84259L9.87407 1.84244V2.64082C9.87407 3.5724 10.5291 4.37577 11.4329 4.55045L11.4424 4.50135L11.4329 4.55045L13.4575 4.94156C14.3049 5.10536 14.8955 5.88692 14.83 6.76057L14.1251 16.1575L3.21452 8.54511ZM3.54597 8.0108L3.55726 8.05951L3.54597 8.0108C3.54597 8.0108 3.54597 8.0108 3.54597 8.0108ZM13.6227 4.06484L13.6132 4.11394L13.6227 4.06484L11.5982 3.67373C11.1106 3.5795 10.7558 3.14547 10.7558 2.64082V1.79243C10.7558 1.32849 10.3834 0.95 9.92428 0.95H6.74244C6.28325 0.95 5.91096 1.32855 5.91096 1.79243V2.64082C5.91096 3.14542 5.55618 3.57945 5.06862 3.67373L3.04395 4.06484L3.04395 4.06484C1.75447 4.31403 0.858062 5.50239 0.957528 6.82818L1.66605 16.2715L1.66605 16.2716C1.69887 16.7077 2.06235 17.05 2.4952 17.05H14.1715C14.6045 17.05 14.9679 16.7076 15.0006 16.2715L15.7092 6.82818C15.8086 5.50239 14.9122 4.31403 13.6227 4.06484Z" fill="#848484" stroke="#848484" stroke-width="0.1"/>
            <path d="M8.33354 5.67723C8.13262 5.67723 7.97086 5.84225 7.97086 6.04427V12.9105C7.97086 13.1125 8.13262 13.2775 8.33354 13.2775C8.53445 13.2775 8.69621 13.1125 8.69621 12.9105V6.04427C8.69621 5.8422 8.5345 5.67723 8.33354 5.67723Z" fill="#848484" stroke="#848484" stroke-width="0.1"/>
        </g>
    </symbol>
    <symbol id="hair-color" viewBox="0 0 17 18">
        <g>
            <path d="M16.0762 13.5863L16.2246 13.4987L16.1175 13.3638L15.9391 13.139L15.9391 13.139C14.9379 11.8777 14.3871 10.3158 14.3871 8.74194V6.41935C14.3871 3.34045 11.738 0.85 8.5 0.85C5.26201 0.85 2.61292 3.34045 2.61292 6.41935V8.74194C2.61292 10.3158 2.0621 11.8777 1.06091 13.139L1.0609 13.139L0.882508 13.3638L0.775389 13.4987L0.923827 13.5863L1.17562 13.7347C1.17566 13.7347 1.17571 13.7347 1.17575 13.7348C1.24546 13.7761 2.40274 14.4407 4.86335 14.8227C4.73227 14.942 4.59385 15.0556 4.448 15.1627L4.44796 15.1627L4.00539 15.4879L3.92308 15.5484L3.94918 15.6471L4.3169 17.0383L4.34641 17.15H4.46192H12.5381H12.6536L12.6831 17.0384L13.0511 15.6474L13.0772 15.5486L12.9949 15.4881L12.5524 15.163C12.5523 15.163 12.5523 15.163 12.5523 15.163C12.4064 15.0557 12.268 14.9422 12.137 14.8229C14.5944 14.4414 15.752 13.7778 15.8243 13.7347C15.8244 13.7347 15.8245 13.7346 15.8247 13.7345L16.0762 13.5863ZM12.0389 15.8122L12.039 15.8123L12.1186 15.8707L11.9959 16.3339H5.00409L4.88142 15.8707L4.96104 15.8123L4.96108 15.8122C6.29874 14.8292 7.12076 13.3909 7.26163 11.8101C7.65315 11.9243 8.06817 11.9887 8.5 11.9887C8.93181 11.9887 9.34683 11.9243 9.73838 11.8099C9.87928 13.3907 10.7013 14.8293 12.0389 15.8122ZM5.09848 7.96774V6.67742C5.09848 6.34136 5.39087 6.05323 5.76806 6.05323H7.13731C8.82052 6.05323 10.4658 5.60789 11.8945 4.76498C11.896 4.76507 11.8988 4.76563 11.9018 4.76718V7.96772C11.9018 7.96773 11.9018 7.96773 11.9018 7.96774C11.9015 9.72678 10.3836 11.1726 8.5 11.1726C6.61642 11.1726 5.09848 9.72677 5.09848 7.96774ZM14.9689 13.2343C14.4079 13.4702 13.2646 13.8629 11.4746 14.0904C10.9154 13.3296 10.5979 12.4289 10.5664 11.4782C11.8631 10.7918 12.7479 9.479 12.7479 7.96774V4.75613C12.7479 4.30174 12.3595 3.94677 11.8999 3.94677C11.7426 3.94677 11.5886 3.98837 11.4537 4.06799C10.1588 4.83246 8.66594 5.2371 7.13731 5.2371H5.76806C4.94019 5.2371 4.25209 5.87516 4.25209 6.67742V7.96774C4.25209 9.479 5.1369 10.7918 6.43358 11.4782C6.4021 12.4289 6.08481 13.3298 5.52567 14.0904C3.74307 13.8634 2.59549 13.4697 2.03202 13.2335C2.95503 11.9085 3.45931 10.3319 3.45931 8.74194V6.41935C3.45931 3.80639 5.71242 1.66613 8.5 1.66613C11.2876 1.66613 13.5407 3.80639 13.5407 6.41935V8.74194C13.5407 10.3325 14.045 11.9092 14.9689 13.2343Z" fill="#848484" stroke="#848484" stroke-width="0.3"/>
        </g>
    </symbol>
    <symbol id="religion" viewBox="0 0 16 16">
        <g>
            <path d="M15.9984 11.5575C15.9875 11.4142 15.9219 11.2824 15.8175 11.1945L12.9284 8.76298C12.7406 8.60499 12.4744 8.62488 12.3081 8.80924L12.0671 9.07645L11.3709 8.46119L10.549 1.42873C10.5487 1.42627 10.5484 1.42378 10.548 1.42132C10.4423 0.611029 9.79711 0 9.04724 0C8.6413 0 8.27243 0.175389 8.00002 0.45996C7.72761 0.175389 7.35874 0 6.9528 0C6.20293 0 5.55771 0.611029 5.45199 1.42132C5.45165 1.42378 5.45134 1.42627 5.45109 1.42873L4.62915 8.46126L3.93297 9.07652L3.69197 8.8093C3.52572 8.62491 3.2594 8.60503 3.07169 8.76305L0.182536 11.1946C0.0781298 11.2824 0.0124737 11.4142 0.00159874 11.5576C-0.00927624 11.701 0.0356924 11.8427 0.125411 11.9481L3.43656 15.8367C3.5235 15.9388 3.64487 15.9978 3.77259 15.9999C3.77503 16 3.77747 16 3.7799 16C3.905 16 4.02503 15.9454 4.11312 15.8482L6.75877 12.9295C6.93915 12.7305 6.93952 12.4102 6.75958 12.2108L6.60677 12.0413L7.99999 10.5207L9.39317 12.0413L9.24036 12.2108C9.06042 12.4103 9.0608 12.7305 9.24117 12.9295L11.8868 15.8482C11.9749 15.9454 12.0949 16 12.22 16C12.2225 16 12.2249 16 12.2274 15.9999C12.3551 15.9978 12.4764 15.9388 12.5634 15.8367L15.8745 11.9481C15.9643 11.8427 16.0093 11.7009 15.9984 11.5575ZM3.7905 14.7492L1.16203 11.6624L3.31519 9.85014L5.76699 12.5687L3.7905 14.7492ZM7.37411 9.75668L5.94912 11.3121L4.59371 9.80918L5.36524 9.12734C5.45909 9.04438 5.51999 8.92514 5.53527 8.79443L6.38049 1.5625C6.42209 1.25484 6.66762 1.02327 6.95277 1.02327C7.27174 1.02327 7.53124 1.30651 7.53124 1.65466V9.3426C7.53124 9.49902 7.47543 9.64607 7.37411 9.75668ZM8.62593 9.75672C8.52458 9.64607 8.46877 9.49899 8.46877 9.34257V1.65466C8.46877 1.30651 8.72827 1.02327 9.04724 1.02327C9.33242 1.02327 9.57792 1.25484 9.61952 1.5625L10.4647 8.79443C10.48 8.92514 10.5409 9.04438 10.6348 9.12734L11.4063 9.80918L10.0509 11.3121L8.62593 9.75672ZM12.2095 14.7492L10.233 12.5687L12.6848 9.85014L14.8379 11.6624L12.2095 14.7492Z" fill="#848484"/>
        </g>
    </symbol>
    <symbol id="smoke" viewBox="0 0 18 19">
        <g>
            <path d="M14.3962 7.07806L2.30689 12.9517C1.59605 13.2971 1.23606 14.116 1.50441 14.7771L1.82886 15.5765C2.09721 16.2377 2.89384 16.4946 3.60468 16.1492L15.694 10.2756C16.4048 9.9302 16.7648 9.11132 16.4965 8.45016L16.172 7.65078C15.9037 6.98962 15.107 6.73269 14.3962 7.07806ZM6.31689 13.8745L3.28023 15.3499C3.04329 15.465 2.77774 15.3793 2.68829 15.1589L2.36384 14.3596C2.27439 14.1392 2.39439 13.8662 2.63134 13.7511L5.66799 12.2757L6.31689 13.8745ZM12.3615 10.9376L7.17632 13.4569L6.52742 11.8582L11.7127 9.33889L12.3615 10.9376ZM14.0804 10.1025L13.221 10.5201L12.5721 8.92133L13.4315 8.50377L14.0804 10.1025ZM15.637 8.86772C15.7265 9.08811 15.6065 9.36106 15.3696 9.47619L14.9398 9.68496L14.2909 8.08621L14.7207 7.87743C14.9576 7.76231 15.2231 7.84795 15.3126 8.06834L15.637 8.86772Z" fill="#848484"/>
            <path d="M10.2379 3.70606C9.66264 2.84592 8.46638 2.56806 7.38271 3.10403L6.59089 3.49565C5.46146 4.05425 4.77698 5.2764 4.99869 6.33851C5.28612 7.71551 6.78625 8.33083 8.15039 7.65615L11.6973 5.90189C11.9418 5.78098 12.2149 5.86715 12.3061 6.09397C12.3975 6.32115 12.6701 6.40714 12.9149 6.28604C13.1598 6.16494 13.2842 5.88258 13.1928 5.65541L12.862 4.83269C12.4576 3.82726 11.3384 3.37461 10.2379 3.70606ZM11.3664 5.07918L7.81951 6.83344C7.0242 7.22678 6.10613 6.89581 5.92704 6.03773C5.79464 5.40349 6.22229 4.66431 6.92177 4.31836L7.71359 3.92674C8.447 3.564 9.26633 3.8225 9.54 4.50296C9.63137 4.73014 9.90395 4.81614 10.1488 4.69504C10.748 4.3987 11.4044 4.51696 11.774 4.94121C11.6378 4.9672 11.5007 5.01279 11.3664 5.07918Z" fill="#848484"/>
        </g>
    </symbol>
    <symbol id="status" viewBox="0 0 16 16">
        <g>
            <path d="M15.3885 6.70781C14.7843 6.29366 13.9898 6.41978 13.5348 6.93894V2.34375C13.5348 1.35472 12.5331 0.6695 11.6101 1.03691C11.4474 0.440156 10.9009 0 10.2533 0C9.7559 0 9.31836 0.259719 9.06824 0.650406C8.13677 0.123469 6.97174 0.799 6.97174 1.875V1.95563C6.05758 1.63144 5.09658 2.31366 5.09658 3.28125V4.44112C4.75368 4.62069 4.49371 4.93744 4.38993 5.31816C3.4664 4.95056 2.46521 5.63672 2.46521 6.625V10.2827C2.00993 9.76319 1.21537 9.63762 0.611491 10.0516C-0.028228 10.4901 -0.192603 11.3677 0.245178 12.0079C1.6739 14.0973 1.57005 13.9586 1.64177 14.0178L3.40277 15.4709V15.5312C3.40277 15.7901 3.61265 16 3.87155 16C4.13046 16 4.34033 15.7901 4.34033 15.5312V15.25C4.34033 15.1101 4.27783 14.9775 4.16993 14.8885L2.28968 13.3369L1.01912 11.4788C0.872772 11.2648 0.927709 10.9714 1.14152 10.8248C1.35637 10.6776 1.6494 10.7325 1.7964 10.9475L2.5469 12.0457C2.66287 12.2155 2.87608 12.2898 3.07237 12.2291C3.2688 12.1684 3.40274 11.9868 3.40274 11.7812V6.625C3.40274 6.36653 3.61302 6.15625 3.87152 6.15625C4.11558 6.15625 4.3403 6.3465 4.3403 6.64062V9.4375C4.3403 9.69637 4.55018 9.90625 4.80908 9.90625C5.06799 9.90625 5.27787 9.69637 5.27787 9.4375C5.27787 8.96391 5.27787 6.03713 5.27787 5.6875C5.27787 5.42903 5.48815 5.21875 5.74665 5.21875C6.00515 5.21875 6.21543 5.42903 6.21543 5.6875V9.4375C6.21543 9.69637 6.4253 9.90625 6.68421 9.90625C6.94312 9.90625 7.15299 9.69637 7.15299 9.4375C7.15299 9.12791 7.15299 6.48844 7.15299 6.15625C7.15299 5.89778 7.36327 5.6875 7.62177 5.6875C7.88027 5.6875 8.09055 5.89778 8.09055 6.15625V9.4375C8.09055 9.69637 8.30043 9.90625 8.55933 9.90625C8.81824 9.90625 9.02811 9.69637 9.02811 9.4375C9.02811 9.12638 9.02811 8.20247 9.02811 7.875C9.02811 7.61653 9.2384 7.40625 9.4969 7.40625C9.7554 7.40625 9.96568 7.61653 9.96568 7.875V12.3304C9.96568 13.0602 9.68146 13.7463 9.1654 14.2623C9.07746 14.3502 9.02808 14.4694 9.02808 14.5938V15.5312C9.02808 15.7901 9.23796 16 9.49686 16C9.75577 16 9.96565 15.7901 9.96565 15.5312V14.7804C10.5717 14.1063 10.9032 13.2439 10.9032 12.3304V7.875C10.9032 7.19806 10.4224 6.63144 9.78427 6.49837C9.78427 6.02319 9.78427 1.51081 9.78427 1.40625C9.78427 1.14778 9.99455 0.9375 10.2531 0.9375C10.5116 0.9375 10.7218 1.14778 10.7218 1.40625V5.6875C10.7218 5.94637 10.9317 6.15625 11.1906 6.15625C11.4495 6.15625 11.6594 5.94637 11.6594 5.6875V2.35938C11.6594 2.06319 11.8863 1.875 12.1282 1.875C12.3866 1.875 12.597 2.08528 12.597 2.34375V8.4375C12.597 8.64306 12.7309 8.82466 12.9273 8.88534C13.1238 8.94603 13.3368 8.87169 13.4528 8.70197L14.2033 7.60378C14.3503 7.38875 14.6433 7.33384 14.8581 7.48109C15.072 7.62769 15.1269 7.92103 14.9806 8.13503L13.7059 9.99922L12.0064 11.4915C11.9051 11.5805 11.8469 11.7089 11.8469 11.8438V15.5312C11.8469 15.7901 12.0568 16 12.3157 16C12.5746 16 12.7845 15.7901 12.7845 15.5312V12.056C14.5106 10.5403 14.3993 10.6462 14.4466 10.5771L15.7546 8.66419C16.1926 8.02394 16.0282 7.14634 15.3885 6.70781ZM6.03418 4.31087V3.28125C6.03418 3.02278 6.24446 2.8125 6.50296 2.8125C6.76146 2.8125 6.97174 3.02278 6.97174 3.28125V4.90987C6.95827 4.91694 6.94496 4.92419 6.93174 4.93166C6.73118 4.61834 6.41012 4.38928 6.03418 4.31087ZM7.9093 4.77962C7.9093 3.808 7.9093 2.84122 7.9093 1.875C7.9093 1.61653 8.11958 1.40625 8.37808 1.40625C8.63658 1.40625 8.84686 1.61653 8.84686 1.875V5.46678C8.65065 5.11953 8.31133 4.86344 7.9093 4.77962Z" fill="#848484"/>
            <path d="M2.23048 2.89395C2.41351 3.07701 2.71038 3.07704 2.89344 2.89395C3.07654 2.71089 3.07654 2.41411 2.89344 2.23105L2.23713 1.5748C2.05407 1.39173 1.75723 1.39173 1.57416 1.5748C1.39107 1.75786 1.39107 2.05464 1.57416 2.2377L2.23048 2.89395Z" fill="#848484"/>
            <path d="M4.07054 1.55059C4.13757 1.80065 4.3946 1.94906 4.64473 1.88203C4.89482 1.81503 5.0432 1.55799 4.9762 1.30793L4.7362 0.412306C4.66917 0.162213 4.41223 0.013869 4.16201 0.080869C3.91192 0.147869 3.76354 0.4049 3.83054 0.654963L4.07054 1.55059Z" fill="#848484"/>
            <path d="M0.411352 4.73673L1.30707 4.97673C1.55726 5.04376 1.81426 4.89526 1.88126 4.6453C1.94826 4.39523 1.79985 4.1382 1.54979 4.0712L0.654071 3.8312C0.404102 3.76417 0.146915 3.91258 0.0798834 4.16264C0.0128834 4.4127 0.16129 4.66973 0.411352 4.73673Z" fill="#848484"/>
        </g>
    </symbol>
    <symbol id="alcohol" viewBox="0 0 16 16">
        <g>
            <path d="M13.5 5.5C13.5 5.081 13.455 4.673 13.367 4.289C13.365 4.279 13.362 4.269 13.359 4.259L12.487 0.39C12.437 0.162 12.233 0 12 0H4C3.766 0 3.563 0.162 3.512 0.39L2.641 4.257C2.638 4.267 2.635 4.278 2.633 4.289C2.544 4.673 2.5 5.081 2.5 5.5C2.5 8.364 4.701 10.721 7.5 10.975V15H5.5C5.224 15 5 15.224 5 15.5C5 15.776 5.224 16 5.5 16H10.5C10.776 16 11 15.776 11 15.5C11 15.224 10.776 15 10.5 15H8.5V10.975C11.299 10.721 13.5 8.364 13.5 5.5ZM3.553 5C3.57 4.846 3.569 4.685 3.601 4.54C3.604 4.529 3.607 4.518 3.61 4.506L4.4 1H11.601L12.391 4.506C12.393 4.516 12.396 4.527 12.399 4.537C12.431 4.684 12.43 4.846 12.447 5H3.553Z" fill="#848484"/>
        </g>
    </symbol>
    <symbol id="children" viewBox="0 0 12 18">
        <g>
            <path d="M7.34925 15.8846L7.34925 15.8846C7.5603 15.9695 7.66253 16.2096 7.57805 16.4209C7.41305 16.8337 7.0164 17.1 6.56913 17.1H5.43069C4.98343 17.1 4.58679 16.8337 4.42175 16.4209L4.42175 16.4209C4.3373 16.2096 4.43952 15.9695 4.65058 15.8846L4.65068 15.8846C4.86182 15.7999 5.10144 15.9026 5.18596 16.1141M7.34925 15.8846L6.56913 16.275H5.43069C5.32159 16.275 5.2237 16.2085 5.18596 16.1141M7.34925 15.8846C7.13807 15.7997 6.89836 15.9027 6.81387 16.1141L7.34925 15.8846ZM5.18596 16.1141L5.09311 16.1512L5.18596 16.1141C5.18596 16.1141 5.18596 16.1141 5.18596 16.1141Z" fill="#848484" stroke="#848484" stroke-width="0.2"/>
            <path d="M8.77057 8.89633C9.22541 9.13524 9.63282 9.4601 9.96923 9.85567C10.4572 10.4295 10.7744 11.1278 10.8865 11.8751C10.9582 12.3524 10.8191 12.8361 10.505 13.202C10.505 13.202 10.505 13.202 10.505 13.202L8.77057 8.89633ZM8.77057 8.89633C9.33428 8.2484 9.67644 7.40147 9.67644 6.47593C9.67641 4.84237 8.6114 3.45376 7.14105 2.97126C7.30358 2.73132 7.39111 2.44838 7.39111 2.15227C7.39114 1.46193 6.83113 0.9 6.14207 0.9H6.14207H6.14206H6.14206H6.14206H6.14205H6.14205H6.14204H6.14204H6.14204H6.14203H6.14203H6.14202H6.14202H6.14202H6.14201H6.14201H6.14201H6.142H6.142H6.14199H6.14199H6.14199H6.14198H6.14198C5.86488 0.9 5.60185 0.990358 5.40297 1.15843M8.77057 8.89633L5.40297 1.15843M5.40297 1.15843C5.40297 1.15843 5.40297 1.15843 5.40298 1.15843L5.46748 1.23476L5.40297 1.15843ZM5.9337 1.78905L5.86914 1.71268L5.93369 1.78906L5.9337 1.78905ZM5.9337 1.78905C5.97851 1.75119 6.05066 1.72496 6.14201 1.72496H6.14204C6.3765 1.72496 6.56788 1.91644 6.56788 2.1522C6.56788 2.3227 6.50188 2.48242 6.38174 2.60289L5.9337 1.78905ZM10.1033 15.1649L10.1034 15.1649C10.2489 14.9784 10.3067 14.738 10.2617 14.5053C10.2167 14.2727 10.0736 14.0714 9.86907 13.953C9.74376 13.8805 9.60316 13.8435 9.46176 13.8435C9.37239 13.8435 9.28266 13.8583 9.19617 13.8882C8.97298 13.9653 8.79426 14.1355 8.70592 14.3553L8.30108 15.3624C8.17854 15.6673 8.30053 16.0217 8.58408 16.1858C8.58408 16.1858 8.58408 16.1858 8.58408 16.1858L10.1033 15.1649ZM10.1033 15.1649L9.43603 16.0201M10.1033 15.1649L9.43603 16.0201M9.43603 16.0201C9.43603 16.0201 9.43603 16.0201 9.43602 16.0201L9.43603 16.0201ZM11.0699 14.3484C10.9885 13.9274 10.7468 13.5574 10.399 13.3142L2.10685 9.92042C1.63096 10.48 1.32161 11.161 1.21222 11.8899C1.14491 12.3385 1.27558 12.793 1.57072 13.1368L1.49484 13.202C1.49484 13.202 1.49484 13.202 1.49484 13.202C1.52859 13.2413 1.564 13.2787 1.60084 13.3141C1.25302 13.5574 1.01139 13.9274 0.929994 14.3484C0.839657 14.8155 0.955571 15.2984 1.248 15.6731L1.32678 15.6116L1.24801 15.6731L1.91536 16.5283C2.20477 16.8991 2.64397 17.098 3.08882 17.098C3.34162 17.098 3.59677 17.0338 3.82763 16.9002C4.46478 16.5313 4.73735 15.7381 4.4624 15.0542L4.05756 14.0471L3.96478 14.0844L4.05756 14.0471C4.0499 14.028 4.04187 14.0092 4.03352 13.9906H6.15575C6.38336 13.9906 6.56738 13.8056 6.56738 13.5781C6.56738 13.3505 6.38336 13.1656 6.15575 13.1656H3.37767V12.6068C3.37767 12.5769 3.40197 12.553 3.43108 12.553H8.56882C8.59792 12.553 8.62223 12.5769 8.62223 12.6068V13.2509C8.31752 13.4332 8.07726 13.7113 7.94228 14.0471L8.03506 14.0844L7.94228 14.0471L7.53744 15.0542C7.2625 15.7381 7.53506 16.5313 8.17221 16.9002L8.22232 16.8136L8.17222 16.9002C8.4031 17.0338 8.65816 17.098 8.91102 17.098C9.35584 17.098 9.7951 16.8991 10.0845 16.5283L10.0057 16.4667L10.0845 16.5283L10.7518 15.6731C10.7518 15.6731 10.7518 15.6731 10.7518 15.6731C11.0443 15.2983 11.1602 14.8155 11.0699 14.3484ZM2.32343 6.4759C2.32343 7.40144 2.66559 8.24837 3.2293 8.8963L6.38174 2.6029C6.2616 2.72334 6.10248 2.78941 5.93278 2.78941H5.93278H5.93277H5.93277H5.93276H5.93276H5.93276H5.93275H5.93275H5.93275H5.93274H5.93274H5.93273H5.93273H5.93273H5.93272H5.93272C5.92199 2.78941 5.91178 2.79016 5.90508 2.79067C3.92119 2.84136 2.32346 4.47516 2.32343 6.4759ZM2.56388 16.0201L2.48504 16.0816L2.56388 16.0201L1.89652 15.165L1.81769 15.2265L1.89652 15.165C1.75093 14.9784 1.69321 14.738 1.73821 14.5054C1.78321 14.2727 1.92636 14.0715 2.13087 13.9531L2.08076 13.8665L2.13087 13.9531C2.33531 13.8347 2.58056 13.8111 2.80378 13.8882C3.02696 13.9654 3.20567 14.1356 3.29402 14.3553C3.29402 14.3554 3.29402 14.3554 3.29402 14.3554L3.69885 15.3625C3.82136 15.6673 3.69935 16.0217 3.41582 16.1859L3.46592 16.2724L3.41581 16.1859C3.13243 16.35 2.76572 16.2788 2.56388 16.0201ZM9.8809 12.664L9.95678 12.7291L9.8809 12.664C9.76605 12.7978 9.61334 12.8899 9.44546 12.93V12.6068C9.44546 12.2719 9.25766 11.9806 8.9825 11.8324V11.5155C8.9825 11.288 8.79848 11.103 8.57088 11.103C8.34327 11.103 8.15925 11.288 8.15925 11.5155V11.728H3.84268V11.5155C3.84268 11.288 3.65866 11.103 3.43105 11.103C3.20344 11.103 3.01942 11.288 3.01942 11.5155V11.8312C2.74312 11.9791 2.55438 12.2711 2.55438 12.6068V12.93C2.38651 12.8899 2.23381 12.7978 2.11893 12.664C1.96129 12.4803 1.89147 12.2375 1.92743 11.9977C2.09782 10.862 2.84356 9.92115 3.89376 9.49575C4.4906 9.9155 5.21708 10.1624 5.99994 10.1624C6.78279 10.1624 7.50927 9.9155 8.10612 9.49575C9.15631 9.92115 9.90205 10.862 10.0724 11.9977C10.1084 12.2375 10.0386 12.4803 9.8809 12.664ZM3.14666 6.47593C3.14669 4.89795 4.42704 3.61447 5.99994 3.61444C7.57283 3.61447 8.85318 4.89795 8.85321 6.47593C8.85321 8.05391 7.5729 9.3374 5.99993 9.33743C4.42701 9.3374 3.14666 8.05391 3.14666 6.47593Z" fill="#848484" stroke="#848484" stroke-width="0.2"/>
            <path d="M7.6848 13.8694C7.76142 13.7926 7.80521 13.6866 7.80521 13.578C7.80521 13.4693 7.76138 13.3633 7.68471 13.2864C7.60805 13.2095 7.50219 13.1655 7.39358 13.1655L7.10236 13.8694C7.17925 13.9469 7.28523 13.9905 7.39358 13.9905C7.50194 13.9905 7.60792 13.9469 7.6848 13.8694ZM7.6848 13.8694C7.68477 13.8694 7.68473 13.8695 7.6847 13.8695L7.61391 13.7989L7.6849 13.8693C7.68487 13.8693 7.68483 13.8694 7.6848 13.8694Z" fill="#848484" stroke="#848484" stroke-width="0.2"/>
            <path d="M5.28378 6.18424L5.28379 6.18425C5.44439 6.34533 5.4444 6.60636 5.28378 6.76743C5.20347 6.84796 5.0979 6.88834 4.99262 6.88834C4.88733 6.88834 4.78181 6.84796 4.70149 6.76746C4.70149 6.76745 4.70148 6.76745 4.70148 6.76745L5.28378 6.18424ZM5.28378 6.18424C4.96203 5.86159 4.4386 5.8616 4.11679 6.18423L4.11678 6.18424M5.28378 6.18424L4.11678 6.18424M4.11678 6.18424C3.95618 6.34529 3.95613 6.6063 4.11678 6.7674L4.11678 6.18424Z" fill="#848484" stroke="#848484" stroke-width="0.2"/>
            <path d="M6.34301 7.52642L6.34303 7.5264C6.48613 7.34944 6.74545 7.32203 6.92215 7.46567L6.34301 7.52642ZM6.34301 7.52642C6.25834 7.63119 6.13344 7.69087 5.99993 7.69087M6.34301 7.52642L5.99993 7.69087M5.07771 7.46567L5.07772 7.46566C5.25438 7.32216 5.51372 7.3493 5.65685 7.52642L5.07771 7.46567ZM5.07771 7.46567C4.90116 7.60913 4.87413 7.86875 5.01713 8.04567L5.07771 7.46567ZM5.99993 7.69087C5.86643 7.69087 5.7415 7.63116 5.65686 7.52643L5.99993 7.69087ZM5.01713 8.04567C5.25849 8.34429 5.61692 8.51583 5.99993 8.51583C6.38295 8.51583 6.74141 8.34425 6.98274 8.04566C7.12573 7.86876 7.09871 7.60915 6.92217 7.46569L5.01713 8.04567Z" fill="#848484" stroke="#848484" stroke-width="0.2"/>
            <path d="M7.88401 6.18421L7.88403 6.18423C8.04462 6.34531 8.04464 6.6063 7.88403 6.76736C7.88402 6.76737 7.88402 6.76737 7.88402 6.76737L7.81321 6.69676C7.69152 6.81882 7.49419 6.81885 7.3725 6.69679L7.88401 6.18421ZM7.88401 6.18421C7.56223 5.86161 7.03877 5.8616 6.71701 6.18421L6.71701 6.18422M7.88401 6.18421L6.71701 6.18422M6.71701 6.18422C6.55639 6.34528 6.5564 6.6063 6.71699 6.76739L6.71701 6.18422ZM7.29931 6.76743C7.29997 6.76677 7.30112 6.76683 7.30169 6.7674L6.717 6.76739C6.79733 6.84799 6.90292 6.88832 7.00817 6.88832C7.11345 6.88832 7.21902 6.84794 7.29934 6.7674L7.22853 6.69679L7.29931 6.76743Z" fill="#848484" stroke="#848484" stroke-width="0.2"/>
        </g>
    </symbol>
    <symbol id="orientation" viewBox="0 0 16 16">
        <g>
            <path d="M12.9344 0V0.979594H14.114L11.8129 3.02362C10.9982 2.24269 9.86226 1.75706 8.60739 1.75706C6.91936 1.75706 5.44638 2.63556 4.68154 3.93003C4.61603 3.92734 4.55018 3.92572 4.48393 3.92572C2.01148 3.92572 0 5.81006 0 8.12628C0 10.2768 1.7341 12.0547 3.96107 12.2981V13.5999H2.39566V14.5795H3.96114V16H5.00682V14.5794H6.64061V13.5998H5.00682V12.2981C6.47285 12.1378 7.72513 11.3127 8.40981 10.1538C8.47532 10.1565 8.54114 10.1581 8.60735 10.1581C11.0798 10.1581 13.0913 8.27378 13.0913 5.95759C13.0913 5.1705 12.8588 4.43341 12.4551 3.80309L14.9543 1.58316V2.79981H16V0H12.9344ZM4.484 11.3472C2.58814 11.3472 1.04575 9.90228 1.04575 8.12622C1.04575 6.41937 2.47032 5.01866 4.26406 4.91206C4.1723 5.24644 4.12346 5.59675 4.12346 5.95759C4.12346 7.84709 5.4622 9.44903 7.29774 9.97516C6.67507 10.8043 5.646 11.3472 4.484 11.3472ZM7.76799 9.08125C6.27657 8.72937 5.16918 7.46244 5.16918 5.95759C5.16918 5.62522 5.22322 5.30444 5.32346 5.00256C6.81488 5.35444 7.92227 6.62141 7.92227 8.12625C7.92227 8.45862 7.8682 8.77938 7.76799 9.08125ZM8.82735 9.17172C8.91912 8.83734 8.96796 8.48706 8.96796 8.12622C8.96796 6.23672 7.62922 4.63478 5.79371 4.10862C6.41638 3.2795 7.44548 2.73659 8.60746 2.73659C10.5033 2.73659 12.0457 4.1815 12.0457 5.95756C12.0457 7.66441 10.6211 9.06516 8.82735 9.17172Z" fill="#848484"/>
        </g>
    </symbol>
    <symbol id="facebook" viewBox="0 0 20 20">
        <g>
            <path fill-rule="evenodd" clip-rule="evenodd" d="M20 10C20 4.47758 15.5224 0 10 0C4.47758 0 0 4.47758 0 10C0 14.9909 3.65634 19.1281 8.43765 19.8791V12.8913H5.8979V10H8.43765V7.79635C8.43765 5.29035 9.9311 3.90517 12.2149 3.90517C13.3089 3.90517 14.4537 4.10064 14.4537 4.10064V6.56165H13.1922C11.9505 6.56165 11.5623 7.33229 11.5623 8.124V9.99992H14.3355L13.8925 12.8912H11.5623V19.879C16.3436 19.1294 19.9999 14.9922 19.9999 9.99992L20 10Z" fill="#703EF0"/>
            <path fill-rule="evenodd" clip-rule="evenodd" d="M13.8922 12.8917L14.3352 10.0004H11.5621V8.12447C11.5621 7.33414 11.9488 6.56212 13.192 6.56212H14.4534V4.10111C14.4534 4.10111 13.3088 3.90564 12.2146 3.90564C9.93084 3.90564 8.43739 5.28944 8.43739 7.79682V10.0005H5.89763V12.8918H8.43739V19.8796C8.94644 19.9596 9.46817 20.0005 9.99974 20.0005C10.5313 20.0005 11.0531 19.9583 11.5621 19.8796V12.8918H13.8923L13.8922 12.8917Z" fill="white"/>
        </g>
    </symbol>
</svg>


